<svg id="Camada_1" data-name="Camada 1" xmlns="http://www.w3.org/2000/svg" viewBox="0 0 907.09 113.39"><defs><style>.cls-1{fill:#141d37;}.cls-2{fill:#538fdd;}.cls-3,.cls-5{fill:#78ebff;}.cls-3{opacity:0.5;}.cls-4{font-size:30px;letter-spacing:0.03em;}.cls-10,.cls-4{fill:#fff;}.cls-4,.cls-5{font-family:LYONCRESTRegular, LYON-CREST;}.cls-5{font-size:100px;}.cls-6{letter-spacing:0.03em;}.cls-7{letter-spacing:0.03em;}.cls-8{letter-spacing:0.02em;}.cls-9{letter-spacing:0.02em;}.cls-10{stroke:#fff;stroke-miterlimit:10;stroke-width:4px;}</style></defs><title>header contato</title><rect class="cls-1" x="-10" y="-6" width="927" height="129"/><rect class="cls-2" x="694.93" y="19.3" width="51.57" height="79.96" rx="25.78" ry="25.78" transform="translate(193.33 554.06) rotate(-47.88)"/><rect class="cls-3" x="714.36" y="18.09" width="51.57" height="79.96" rx="25.78" ry="25.78" transform="translate(1272.2 575.85) rotate(-140.26)"/><rect class="cls-2" x="4.64" y="-37.89" width="134.68" height="208.82" rx="67.34" ry="67.34" transform="translate(-25.64 75.29) rotate(-47.88)"/><rect class="cls-3" x="55.37" y="-41.06" width="134.68" height="208.82" rx="67.34" ry="67.34" transform="translate(176.58 190.51) rotate(-140.26)"/><text class="cls-4" transform="translate(784.33 33.67)">FOR</text><text class="cls-5" transform="translate(781.33 104.67)">U</text><text class="cls-4" transform="translate(59.33 70.67)">Estam<tspan class="cls-6" x="78.78" y="0">o</tspan><tspan class="cls-7" x="94.35" y="0">s </tspan><tspan class="cls-8" x="119.46" y="0">t</tspan><tspan x="129.66" y="0">e </tspan><tspan class="cls-9" x="157.77" y="0">e</tspan><tspan x="174.9" y="0" xml:space="preserve">sperando  </tspan></text><line class="cls-10" x1="380.5" y1="32" x2="380.5" y2="88"/></svg>