<svg xmlns="http://www.w3.org/2000/svg" viewBox="0 0 200.61 203.02"><defs><style>.cls-1{fill:none;stroke:#212683;stroke-miterlimit:10;stroke-width:6px;}.cls-2{fill:#1f268e;}.cls-3{fill:#212683;}</style></defs><title>Mobile</title><g id="Layer_2" data-name="Layer 2"><g id="Layer_1-2" data-name="Layer 1"><path class="cls-1" d="M160.1,77.9V22.48A19.48,19.48,0,0,0,140.62,3H56A19.48,19.48,0,0,0,36.51,22.48V180.54A19.48,19.48,0,0,0,56,200h84.63a19.48,19.48,0,0,0,19.48-19.48V111.6"/><path class="cls-1" d="M125.42,65.19H112.3a2.54,2.54,0,0,1-2.54-2.54V49.53A2.54,2.54,0,0,0,107.22,47H89.39a2.54,2.54,0,0,0-2.54,2.54V62.65a2.54,2.54,0,0,1-2.54,2.54H71.19a2.54,2.54,0,0,0-2.54,2.54V85.57a2.54,2.54,0,0,0,2.54,2.54H84.31a2.54,2.54,0,0,1,2.54,2.54v13.12a2.54,2.54,0,0,0,2.54,2.54h17.84a2.54,2.54,0,0,0,2.54-2.54V90.64a2.54,2.54,0,0,1,2.54-2.54h13.12A2.54,2.54,0,0,0,128,85.57V67.73A2.54,2.54,0,0,0,125.42,65.19Z"/><path class="cls-2" d="M193.4,37.61l-2.93-.05.05-2.93a3.61,3.61,0,0,0-7.22-.13l-.05,2.93-2.93-.05a3.61,3.61,0,1,0-.13,7.22l2.93.05-.05,2.93a3.61,3.61,0,0,0,7.22.13l.05-2.93,2.93.05a3.61,3.61,0,0,0,.13-7.22Z"/><path class="cls-2" d="M198.21,160.86l-2,0,0-2a2.45,2.45,0,0,0-4.89-.09l0,2-2,0a2.45,2.45,0,1,0-.09,4.89l2,0,0,2a2.45,2.45,0,0,0,4.89.09l0-2,2,0a2.45,2.45,0,0,0,.09-4.89Z"/><path class="cls-2" d="M14.49,91.74l-2.53,0,0-2.53A3.12,3.12,0,0,0,5.76,89l0,2.53-2.53,0a3.12,3.12,0,1,0-.12,6.24l2.53,0,0,2.53a3.12,3.12,0,0,0,6.24.12l0-2.53,2.53,0a3.12,3.12,0,0,0,.12-6.24Z"/><path class="cls-1" d="M103.31,3h-36l6.41,12.23A3.29,3.29,0,0,0,76.63,17H120a3.29,3.29,0,0,0,2.92-1.77L129.31,3Z"/><line class="cls-1" x1="98.46" y1="156.41" x2="138.08" y2="156.41"/><line class="cls-1" x1="58.54" y1="156.41" x2="90.35" y2="156.41"/><line class="cls-1" x1="58.54" y1="137.32" x2="138.08" y2="137.32"/><line class="cls-1" x1="58.54" y1="174.74" x2="114.1" y2="174.74"/><line class="cls-1" x1="119.77" y1="174.74" x2="138.08" y2="174.74"/><path class="cls-1" d="M60.85,15.41H57.23a8.13,8.13,0,0,0-8.12,8.13v6.88"/><line class="cls-1" x1="86.85" y1="61.91" x2="86.85" y2="72.41"/><line class="cls-1" x1="86.85" y1="75.74" x2="86.85" y2="79.91"/><circle class="cls-3" cx="160.1" cy="94.57" r="3.29"/></g></g></svg>