<svg xmlns="http://www.w3.org/2000/svg" viewBox="0 0 206.08 222.08"><defs><style>.cls-1{fill:none;stroke:#212683;stroke-miterlimit:10;stroke-width:6px;}.cls-2{fill:#1f268e;}.cls-3{fill:#212683;}</style></defs><title>Location</title><g id="Layer_2" data-name="Layer 2"><g id="Layer_1-2" data-name="Layer 1"><circle class="cls-1" cx="114.82" cy="74.49" r="42.04"/><path class="cls-1" d="M134.06,66.51h-9.82a1.43,1.43,0,0,1-1.43-1.43V55.25a1.43,1.43,0,0,0-1.43-1.43H108.26a1.43,1.43,0,0,0-1.43,1.43v9.82a1.43,1.43,0,0,1-1.43,1.43H95.58a1.43,1.43,0,0,0-1.43,1.43V81a1.43,1.43,0,0,0,1.43,1.43h9.82a1.43,1.43,0,0,1,1.43,1.43v9.82a1.43,1.43,0,0,0,1.43,1.43h13.11a1.43,1.43,0,0,0,1.43-1.43V83.91a1.43,1.43,0,0,1,1.43-1.43h9.82A1.43,1.43,0,0,0,135.49,81V67.94A1.43,1.43,0,0,0,134.06,66.51Z"/><path class="cls-1" d="M184.9,73.08A70.08,70.08,0,1,0,61,118c20.2,24.16,37.73,50.44,53.47,77.71h0a.36.36,0,0,0,.63,0l2.27-3.93c15.23-26.37,33-51.12,52.09-74.86A69.77,69.77,0,0,0,184.9,73.08Z"/><path class="cls-1" d="M131.67,219.08h19.7a11,11,0,0,0,0-21.9H78.27a11,11,0,0,0,0,21.9H98"/><path class="cls-2" d="M12.32,121.76l-2.15,0,0-2.15a2.65,2.65,0,0,0-5.31-.1l0,2.15-2.15,0a2.65,2.65,0,1,0-.1,5.31l2.15,0,0,2.15a2.65,2.65,0,0,0,5.31.1l0-2.15,2.15,0a2.65,2.65,0,0,0,.1-5.31Z"/><path class="cls-2" d="M203.48,12.33l-2.15,0,0-2.15a2.65,2.65,0,0,0-5.31-.1l0,2.15-2.15,0a2.65,2.65,0,1,0-.1,5.31l2.15,0,0,2.15a2.65,2.65,0,0,0,5.31.1l0-2.15,2.15,0a2.65,2.65,0,0,0,.1-5.31Z"/><path class="cls-2" d="M197.76,164l-2.93-.05.05-2.93a3.61,3.61,0,0,0-7.22-.13l-.05,2.93-2.93-.05a3.61,3.61,0,1,0-.13,7.22l2.93.05-.05,2.93a3.61,3.61,0,0,0,7.22.13l.05-2.93,2.93.05a3.61,3.61,0,0,0,.13-7.22Z"/><circle class="cls-3" cx="114.82" cy="218.29" r="3.29"/><line class="cls-1" x1="103.4" y1="114.33" x2="103.4" y2="143.96"/><line class="cls-1" x1="103.4" y1="148.29" x2="103.4" y2="152.96"/><line class="cls-1" x1="67.32" y1="208.13" x2="162.32" y2="208.13"/></g></g></svg>